# xmcd
#
# Track frame offsets:
#	150
#	15589
#	38395
#	59140
#
# Disc length: 1173 seconds
#
# Revision: 1
# Processed by: cddbd v1.5.2PL0 Copyright (c) Steve Scherf et al.
# Submitted via: audiograbber 1.83.01
#
DISCID=29049304
DTITLE=Bob Downes - Mixed Bag Bonus CD
DYEAR=2013
DGENRE=
TTITLE0=Don't let tomorrow get you down
TTITLE1=Walking On
TTITLE2=Thebes Blues
TTITLE3=Gonna take a journey
EXTD=added by Feier-Entertainment
EXTT0=
EXTT1=
EXTT2=
EXTT3=
PLAYORDER=
